#N canvas 0 0 1280 778 12;
#X obj 48 509 osc~;
#X obj 463 717 dac~;
#X obj 463 691 *~ 0.25;
#X obj 267 76 pack 0 0 0, f 20;
#X obj 267 53 tgl 15 0 empty empty empty 17 7 0 10 -262144 -1 -1 0
1;
#X floatatom 335 54 5 0 0 0 - - -;
#X floatatom 404 54 5 0 0 0 - - -;
#X obj 42 186 random_metro;
#X text 253 33 START;
#X text 314 32 RANDOMNESS;
#X text 395 32 MIN TIME;
#X obj 62 267 f;
#X obj 102 267 + 1;
#X floatatom 48 291 5 0 0 0 - - -;
#X obj 42 241 bng 15 250 50 0 empty empty empty 17 7 0 10 -262144 -1
-1;
#X obj 62 214 loadbang;
#X text 131 214 random starting counter;
#X obj 1026 42 loadbang;
#X obj 90 509 tabwrite frequencies;
#X floatatom 227 365 5 0 0 0 - - -;
#X obj 48 338 tabread frequencies;
#X obj 227 257 loadbang;
#X msg 227 280 0;
#X obj 62 239 random 4;
#X obj 102 290 mod 4;
#X obj 102 313 expr if($f1 == $f2 \, $f1+1 \, $f1);
#X floatatom 48 365 5 0 0 0 - - -;
#X obj 48 458 +, f 5;
#X floatatom 48 481 5 0 0 0 - - -;
#X obj 48 387 t f b;
#X obj 370 506 osc~;
#X obj 364 182 random_metro;
#X obj 384 263 f;
#X obj 424 263 + 1;
#X floatatom 370 287 5 0 0 0 - - -;
#X obj 364 237 bng 15 250 50 0 empty empty empty 17 7 0 10 -262144
-1 -1;
#X obj 384 210 loadbang;
#X obj 412 506 tabwrite frequencies;
#X floatatom 549 361 5 0 0 0 - - -;
#X obj 370 334 tabread frequencies;
#X obj 549 253 loadbang;
#X obj 384 235 random 4;
#X obj 424 286 mod 4;
#X obj 424 309 expr if($f1 == $f2 \, $f1+1 \, $f1);
#X floatatom 370 361 5 0 0 0 - - -;
#X obj 370 455 +, f 5;
#X floatatom 370 478 5 0 0 0 - - -;
#X obj 370 383 t f b;
#X obj 666 509 osc~;
#X obj 660 187 random_metro;
#X obj 680 268 f;
#X obj 720 268 + 1;
#X floatatom 666 292 5 0 0 0 - - -;
#X obj 660 242 bng 15 250 50 0 empty empty empty 17 7 0 10 -262144
-1 -1;
#X obj 680 215 loadbang;
#X obj 708 509 tabwrite frequencies;
#X floatatom 845 366 5 0 0 0 - - -;
#X obj 666 339 tabread frequencies;
#X obj 845 258 loadbang;
#X obj 680 240 random 4;
#X obj 720 291 mod 4;
#X obj 720 314 expr if($f1 == $f2 \, $f1+1 \, $f1);
#X floatatom 666 366 5 0 0 0 - - -;
#X obj 666 458 +, f 5;
#X floatatom 666 481 5 0 0 0 - - -;
#X obj 666 388 t f b;
#X obj 980 506 osc~;
#X obj 974 183 random_metro;
#X obj 994 264 f;
#X obj 1034 264 + 1;
#X floatatom 980 288 5 0 0 0 - - -;
#X obj 974 238 bng 15 250 50 0 empty empty empty 17 7 0 10 -262144
-1 -1;
#X obj 994 211 loadbang;
#X obj 1022 506 tabwrite frequencies;
#X floatatom 1159 362 5 0 0 0 - - -;
#X obj 980 335 tabread frequencies;
#X obj 1159 254 loadbang;
#X obj 994 236 random 4;
#X obj 1034 287 mod 4;
#X obj 1034 310 expr if($f1 == $f2 \, $f1+1 \, $f1);
#X floatatom 980 362 5 0 0 0 - - -;
#X obj 980 455 +, f 5;
#X floatatom 980 478 5 0 0 0 - - -;
#X obj 980 384 t f b;
#X msg 549 276 1;
#X msg 845 281 2;
#X msg 1159 277 3;
#X floatatom 478 53 5 0 0 0 - - -;
#X obj 478 75 s error;
#X text 477 31 ERROR;
#X obj 509 666 * 0.25;
#X msg 1026 65 \; frequencies 0 300 350 400 450;
#N canvas 0 22 450 278 (subpatch) 0;
#X array frequencies 4 float 3;
#A 0 671 433 431 490;
#X coords 0 1000 4 0 200 140 1 0 0;
#X restore 970 581 graph;
#X obj 80 410 random 20;
#X obj 80 433 - 10, f 9;
#X obj 140 365 r error;
#X obj 140 388 t f f;
#X obj 172 411 / 2;
#X obj 402 407 random 20;
#X obj 402 430 - 10, f 9;
#X obj 462 362 r error;
#X obj 462 385 t f f;
#X obj 494 408 / 2;
#X obj 698 411 random 20;
#X obj 698 434 - 10, f 9;
#X obj 758 366 r error;
#X obj 758 389 t f f;
#X obj 790 412 / 2;
#X obj 1012 409 random 20;
#X obj 1012 432 - 10, f 9;
#X obj 1072 364 r error;
#X obj 1072 387 t f f;
#X obj 1104 410 / 2;
#X obj 198 76 s vol;
#X obj 509 643 r vol;
#X obj 1026 126 random_initialize;
#X obj 1026 106 bng 15 250 50 0 empty empty empty 17 7 0 10 -262144
-1 -1;
#X obj 267 102 s start;
#X obj 42 161 r start;
#X obj 364 158 r start;
#X obj 660 163 r start;
#X obj 974 160 r start;
#X connect 0 0 2 0;
#X connect 2 0 1 0;
#X connect 2 0 1 1;
#X connect 3 0 117 0;
#X connect 4 0 3 0;
#X connect 4 0 113 0;
#X connect 5 0 3 1;
#X connect 6 0 3 2;
#X connect 7 0 14 0;
#X connect 11 0 13 0;
#X connect 11 0 12 0;
#X connect 12 0 24 0;
#X connect 13 0 20 0;
#X connect 14 0 11 0;
#X connect 15 0 23 0;
#X connect 17 0 91 0;
#X connect 19 0 18 1;
#X connect 20 0 26 0;
#X connect 21 0 22 0;
#X connect 22 0 19 0;
#X connect 22 0 25 1;
#X connect 23 0 11 0;
#X connect 24 0 25 0;
#X connect 25 0 11 1;
#X connect 26 0 29 0;
#X connect 27 0 28 0;
#X connect 28 0 0 0;
#X connect 28 0 18 0;
#X connect 29 0 27 0;
#X connect 29 1 93 0;
#X connect 30 0 2 0;
#X connect 31 0 35 0;
#X connect 32 0 34 0;
#X connect 32 0 33 0;
#X connect 33 0 42 0;
#X connect 34 0 39 0;
#X connect 35 0 32 0;
#X connect 36 0 41 0;
#X connect 38 0 37 1;
#X connect 39 0 44 0;
#X connect 40 0 84 0;
#X connect 41 0 32 0;
#X connect 42 0 43 0;
#X connect 43 0 32 1;
#X connect 44 0 47 0;
#X connect 45 0 46 0;
#X connect 46 0 30 0;
#X connect 46 0 37 0;
#X connect 47 0 45 0;
#X connect 47 1 98 0;
#X connect 48 0 2 0;
#X connect 49 0 53 0;
#X connect 50 0 52 0;
#X connect 50 0 51 0;
#X connect 51 0 60 0;
#X connect 52 0 57 0;
#X connect 53 0 50 0;
#X connect 54 0 59 0;
#X connect 56 0 55 1;
#X connect 57 0 62 0;
#X connect 58 0 85 0;
#X connect 59 0 50 0;
#X connect 60 0 61 0;
#X connect 61 0 50 1;
#X connect 62 0 65 0;
#X connect 63 0 64 0;
#X connect 64 0 48 0;
#X connect 64 0 55 0;
#X connect 65 0 63 0;
#X connect 65 1 103 0;
#X connect 66 0 2 0;
#X connect 67 0 71 0;
#X connect 68 0 70 0;
#X connect 68 0 69 0;
#X connect 69 0 78 0;
#X connect 70 0 75 0;
#X connect 71 0 68 0;
#X connect 72 0 77 0;
#X connect 74 0 73 1;
#X connect 75 0 80 0;
#X connect 76 0 86 0;
#X connect 77 0 68 0;
#X connect 78 0 79 0;
#X connect 79 0 68 1;
#X connect 80 0 83 0;
#X connect 81 0 82 0;
#X connect 82 0 66 0;
#X connect 82 0 73 0;
#X connect 83 0 81 0;
#X connect 83 1 108 0;
#X connect 84 0 38 0;
#X connect 84 0 43 1;
#X connect 85 0 56 0;
#X connect 85 0 61 1;
#X connect 86 0 74 0;
#X connect 86 0 79 1;
#X connect 87 0 88 0;
#X connect 90 0 2 1;
#X connect 93 0 94 0;
#X connect 94 0 27 1;
#X connect 95 0 96 0;
#X connect 96 0 93 1;
#X connect 96 1 97 0;
#X connect 97 0 94 1;
#X connect 98 0 99 0;
#X connect 99 0 45 1;
#X connect 100 0 101 0;
#X connect 101 0 98 1;
#X connect 101 1 102 0;
#X connect 102 0 99 1;
#X connect 103 0 104 0;
#X connect 104 0 63 1;
#X connect 105 0 106 0;
#X connect 106 0 103 1;
#X connect 106 1 107 0;
#X connect 107 0 104 1;
#X connect 108 0 109 0;
#X connect 109 0 81 1;
#X connect 110 0 111 0;
#X connect 111 0 108 1;
#X connect 111 1 112 0;
#X connect 112 0 109 1;
#X connect 114 0 90 0;
#X connect 116 0 115 0;
#X connect 118 0 7 0;
#X connect 119 0 31 0;
#X connect 120 0 49 0;
#X connect 121 0 67 0;
