#N canvas 487 49 781 526 12;
#X floatatom 332 299 5 0 0 0 - - -;
#X floatatom 401 298 5 0 0 0 - - -;
#X text 311 277 RANDOMNESS;
#X text 392 276 MIN TIME;
#X floatatom 473 184 5 0 0 0 - - -;
#X obj 473 206 s error;
#X text 472 162 ERROR;
#X obj 144 163 f;
#X obj 178 163 + 1;
#X floatatom 144 186 5 0 0 0 - - -;
#X obj 144 138 vuzi;
#X floatatom 144 115 5 0 0 0 - - -;
#X msg 108 116 0;
#X obj 144 68 bng 15 250 50 0 empty empty empty 17 7 0 10 -262144 -1
-1;
#X text 182 89 NUM VOICES;
#X msg 144 237 next \$1;
#X obj 271 300 tgl 15 0 empty empty empty 17 7 0 10 -262144 -1 -1 0
1;
#X text 263 278 START;
#X obj 144 262 clone voice 5;
#X msg 144 91 4;
#X obj 595 63 loadbang;
#X msg 595 86 \; frequencies 0 300 350 400 450;
#N canvas 0 22 450 278 (subpatch) 0;
#X array frequencies 4 float 3;
#A 0 300 350 400 450;
#X coords 0 1000 4 0 200 140 1 0 0;
#X restore 595 153 graph;
#X obj 144 285 *~ 0.25;
#X obj 144 308 dac~;
#X obj 271 322 pack 0 0 0, f 19;
#X obj 271 345 s start;
#X connect 0 0 25 1;
#X connect 1 0 25 2;
#X connect 4 0 5 0;
#X connect 7 0 8 0;
#X connect 7 0 9 0;
#X connect 8 0 7 1;
#X connect 9 0 15 0;
#X connect 10 0 7 0;
#X connect 11 0 10 0;
#X connect 12 0 7 0;
#X connect 13 0 12 0;
#X connect 13 0 19 0;
#X connect 15 0 18 0;
#X connect 16 0 25 0;
#X connect 18 0 23 0;
#X connect 19 0 11 0;
#X connect 20 0 21 0;
#X connect 23 0 24 0;
#X connect 23 0 24 1;
#X connect 25 0 26 0;
