#N canvas 523 145 459 523 12;
#X obj 87 183 f;
#X obj 127 183 + 1;
#X floatatom 73 207 5 0 0 0 - - -;
#X obj 67 157 bng 15 250 50 0 empty empty empty 17 7 0 10 -262144 -1
-1;
#X obj 87 130 loadbang;
#X text 156 130 random starting counter;
#X obj 115 425 tabwrite frequencies;
#X floatatom 252 279 5 0 0 0 - - -;
#X obj 73 254 tabread frequencies;
#X obj 87 155 random 4;
#X obj 127 206 mod 4;
#X obj 127 229 expr if($f1 == $f2 \, $f1+1 \, $f1);
#X floatatom 73 281 5 0 0 0 - - -;
#X obj 73 374 +, f 5;
#X floatatom 73 397 5 0 0 0 - - -;
#X obj 73 303 t f b;
#X obj 105 326 random 20;
#X obj 105 349 - 10, f 9;
#X obj 165 281 r error;
#X obj 165 304 t f f;
#X obj 197 327 / 2;
#X obj 67 102 random_metro;
#X obj 341 196 inlet;
#X obj 73 451 outlet~;
#X obj 73 419 osc~;
#X obj 67 76 r start;
#X connect 0 0 2 0;
#X connect 0 0 1 0;
#X connect 1 0 10 0;
#X connect 2 0 8 0;
#X connect 3 0 0 0;
#X connect 4 0 9 0;
#X connect 7 0 6 1;
#X connect 8 0 12 0;
#X connect 9 0 0 0;
#X connect 10 0 11 0;
#X connect 11 0 0 1;
#X connect 12 0 15 0;
#X connect 13 0 14 0;
#X connect 14 0 6 0;
#X connect 14 0 24 0;
#X connect 15 0 13 0;
#X connect 15 1 16 0;
#X connect 16 0 17 0;
#X connect 17 0 13 1;
#X connect 18 0 19 0;
#X connect 19 0 16 1;
#X connect 19 1 20 0;
#X connect 20 0 17 1;
#X connect 21 0 3 0;
#X connect 22 0 7 0;
#X connect 22 0 11 1;
#X connect 24 0 23 0;
#X connect 25 0 21 0;
