#N canvas 0 22 650 492 12;
#X obj 70 197 tabread4~ wavetable;
#X floatatom 70 128 5 0 0 0 - - -;
#X obj 70 150 phasor~;
#X obj 70 173 *~ 2051;
#X obj 70 104 inlet;
#X obj 70 244 outlet~;
#X obj 105 221 lop~ 300;
#X connect 0 0 5 0;
#X connect 1 0 2 0;
#X connect 2 0 3 0;
#X connect 3 0 0 0;
#X connect 4 0 1 0;
