#N canvas 0 0 1440 872 12;
#X declare -lib vbap;
#X floatatom 331 184 7 0 0 0 - - - 0;
#X floatatom 413 183 7 0 0 0 - - - 0;
#X text 171 138 START;
#X text 310 162 RANDOMNESS;
#X text 404 161 MIN TIME;
#X floatatom 499 183 5 0 0 0 - - - 0;
#X obj 499 205 s error;
#X text 498 161 ERROR;
#N canvas 0 22 450 278 (subpatch) 0;
#X array frequencies 19 float 3;
#A 0 672 845 152 292 512 330 336 418 451 667 820 709 535 721 540 503
462 718 678;
#X coords 0 1200 19 0 200 140 1 0 0;
#X restore 1690 456 graph;
#X obj 1918 505 random_initialize;
#X obj 1918 485 bng 15 250 50 0 empty empty empty 17 7 0 10 #fcfcfc
#000000 #000000;
#X obj 90 373 sub_voice;
#X obj 149 257 loadbang;
#X obj 1918 461 loadbang;
#X text 1707 409 INITIALIZE FREQUENCIES;
#X text 1753 225 SONIC MEDITATION X - Pauline Oliveros;
#X text 315 61 COMPUTATIONAL SONIC MEDITATION - X;
#X text 1682 255 Sit in a circle with your eyes closed. Begin by observing
your own breathing. Gradually form a mental image of one person who
is sitting in the circle. Sing a long tone to that person. Then sing
the pitch that person is singing. Change your mental image to another
person and repeat until you have contacted every person in the circle
one or more times;
#X obj 90 401 *~ 0.25;
#X obj 149 399 * 0.25;
#X obj 185 161 bng 15 250 50 0 empty empty empty 17 7 0 10 #fcfcfc
#000000 #000000;
#X obj 331 209 s rand;
#X obj 413 208 s mintime;
#X obj 90 347 pack 0 0 0, f 12;
#X obj 110 325 r rand;
#X obj 163 325 r mintime;
#X obj 345 110 loadbang;
#X msg 345 134 5000;
#X msg 393 133 500;
#X msg 429 132 40;
#X obj 2082 499 declare -lib vbap;
#X obj 90 428 vbap5.1;
#X obj 90 454 dac~ 1 2 3 5 6;
#X msg 2082 457 \; frequencies resize \$1;
#X floatatom 574 183 5 0 0 0 - - - 0;
#X obj 574 206 s numvoices;
#X obj 2082 430 r numvoices;
#X obj 185 182 s start;
#X obj 90 257 r start;
#X obj 199 422 tgl 15 0 empty empty empty 17 7 0 10 #fcfcfc #000000
#000000 0 1;
#X floatatom 200 375 5 0 0 0 - - - 0;
#X obj 90 281 t b b;
#X obj 199 398 del;
#X msg 149 282 0;
#X msg 186 282 -180;
#X obj 299 375 sub_voice;
#X obj 358 259 loadbang;
#X obj 299 403 *~ 0.25;
#X obj 358 401 * 0.25;
#X obj 299 349 pack 0 0 0, f 12;
#X obj 319 327 r rand;
#X obj 372 327 r mintime;
#X obj 299 430 vbap5.1;
#X obj 299 456 dac~ 1 2 3 5 6;
#X obj 299 259 r start;
#X obj 408 424 tgl 15 0 empty empty empty 17 7 0 10 #fcfcfc #000000
#000000 0 1;
#X floatatom 409 377 5 0 0 0 - - - 0;
#X obj 299 283 t b b;
#X obj 408 400 del;
#X obj 515 377 sub_voice;
#X obj 574 261 loadbang;
#X obj 515 405 *~ 0.25;
#X obj 574 403 * 0.25;
#X obj 515 351 pack 0 0 0, f 12;
#X obj 535 329 r rand;
#X obj 588 329 r mintime;
#X obj 515 432 vbap5.1;
#X obj 515 458 dac~ 1 2 3 5 6;
#X obj 515 261 r start;
#X obj 624 426 tgl 15 0 empty empty empty 17 7 0 10 #fcfcfc #000000
#000000 0 1;
#X floatatom 625 379 5 0 0 0 - - - 0;
#X obj 515 285 t b b;
#X obj 624 402 del;
#X obj 727 378 sub_voice;
#X obj 786 262 loadbang;
#X obj 727 406 *~ 0.25;
#X obj 786 404 * 0.25;
#X obj 727 352 pack 0 0 0, f 12;
#X obj 747 330 r rand;
#X obj 800 330 r mintime;
#X obj 727 433 vbap5.1;
#X obj 727 459 dac~ 1 2 3 5 6;
#X obj 727 262 r start;
#X obj 836 427 tgl 15 0 empty empty empty 17 7 0 10 #fcfcfc #000000
#000000 0 1;
#X floatatom 837 380 5 0 0 0 - - - 0;
#X obj 727 286 t b b;
#X obj 836 403 del;
#X obj 939 377 sub_voice;
#X obj 998 261 loadbang;
#X obj 939 405 *~ 0.25;
#X obj 998 403 * 0.25;
#X obj 939 351 pack 0 0 0, f 12;
#X obj 959 329 r rand;
#X obj 1012 329 r mintime;
#X obj 939 432 vbap5.1;
#X obj 939 458 dac~ 1 2 3 5 6;
#X obj 939 261 r start;
#X obj 1048 426 tgl 15 0 empty empty empty 17 7 0 10 #fcfcfc #000000
#000000 0 1;
#X floatatom 1049 379 5 0 0 0 - - - 0;
#X obj 939 285 t b b;
#X obj 1048 402 del;
#X obj 1150 378 sub_voice;
#X obj 1209 262 loadbang;
#X obj 1150 406 *~ 0.25;
#X obj 1209 404 * 0.25;
#X obj 1150 352 pack 0 0 0, f 12;
#X obj 1170 330 r rand;
#X obj 1223 330 r mintime;
#X obj 1150 433 vbap5.1;
#X obj 1150 459 dac~ 1 2 3 5 6;
#X obj 1150 262 r start;
#X obj 1259 427 tgl 15 0 empty empty empty 17 7 0 10 #fcfcfc #000000
#000000 0 1;
#X floatatom 1260 380 5 0 0 0 - - - 0;
#X obj 1150 286 t b b;
#X obj 1259 403 del;
#X msg 358 284 1;
#X msg 574 286 2;
#X msg 786 287 3;
#X msg 998 286 4;
#X msg 1209 287 5;
#X obj 1366 380 sub_voice;
#X obj 1425 264 loadbang;
#X obj 1366 408 *~ 0.25;
#X obj 1425 406 * 0.25;
#X obj 1366 354 pack 0 0 0, f 12;
#X obj 1386 332 r rand;
#X obj 1439 332 r mintime;
#X obj 1366 435 vbap5.1;
#X obj 1366 461 dac~ 1 2 3 5 6;
#X obj 1366 264 r start;
#X obj 1475 429 tgl 15 0 empty empty empty 17 7 0 10 #fcfcfc #000000
#000000 0 1;
#X floatatom 1476 382 5 0 0 0 - - - 0;
#X obj 1366 288 t b b;
#X obj 1475 405 del;
#X msg 1425 289 6;
#X obj 96 628 sub_voice;
#X obj 155 512 loadbang;
#X obj 96 656 *~ 0.25;
#X obj 155 654 * 0.25;
#X obj 96 602 pack 0 0 0, f 12;
#X obj 116 580 r rand;
#X obj 169 580 r mintime;
#X obj 96 683 vbap5.1;
#X obj 96 709 dac~ 1 2 3 5 6;
#X obj 96 512 r start;
#X obj 205 677 tgl 15 0 empty empty empty 17 7 0 10 #fcfcfc #000000
#000000 0 1;
#X floatatom 206 630 5 0 0 0 - - - 0;
#X obj 96 536 t b b;
#X obj 205 653 del;
#X obj 305 630 sub_voice;
#X obj 364 514 loadbang;
#X obj 305 658 *~ 0.25;
#X obj 364 656 * 0.25;
#X obj 305 604 pack 0 0 0, f 12;
#X obj 325 582 r rand;
#X obj 378 582 r mintime;
#X obj 305 685 vbap5.1;
#X obj 305 711 dac~ 1 2 3 5 6;
#X obj 305 514 r start;
#X obj 414 679 tgl 15 0 empty empty empty 17 7 0 10 #fcfcfc #000000
#000000 0 1;
#X floatatom 415 632 5 0 0 0 - - - 0;
#X obj 305 538 t b b;
#X obj 414 655 del;
#X obj 521 632 sub_voice;
#X obj 580 516 loadbang;
#X obj 521 660 *~ 0.25;
#X obj 580 658 * 0.25;
#X obj 521 606 pack 0 0 0, f 12;
#X obj 541 584 r rand;
#X obj 594 584 r mintime;
#X obj 521 687 vbap5.1;
#X obj 521 713 dac~ 1 2 3 5 6;
#X obj 521 516 r start;
#X obj 630 681 tgl 15 0 empty empty empty 17 7 0 10 #fcfcfc #000000
#000000 0 1;
#X floatatom 631 634 5 0 0 0 - - - 0;
#X obj 521 540 t b b;
#X obj 630 657 del;
#X obj 733 633 sub_voice;
#X obj 792 517 loadbang;
#X obj 733 661 *~ 0.25;
#X obj 792 659 * 0.25;
#X obj 733 607 pack 0 0 0, f 12;
#X obj 753 585 r rand;
#X obj 806 585 r mintime;
#X obj 733 688 vbap5.1;
#X obj 733 714 dac~ 1 2 3 5 6;
#X obj 733 517 r start;
#X obj 842 682 tgl 15 0 empty empty empty 17 7 0 10 #fcfcfc #000000
#000000 0 1;
#X floatatom 843 635 5 0 0 0 - - - 0;
#X obj 733 541 t b b;
#X obj 842 658 del;
#X obj 945 632 sub_voice;
#X obj 1004 516 loadbang;
#X obj 945 660 *~ 0.25;
#X obj 1004 658 * 0.25;
#X obj 945 606 pack 0 0 0, f 12;
#X obj 965 584 r rand;
#X obj 1018 584 r mintime;
#X obj 945 687 vbap5.1;
#X obj 945 713 dac~ 1 2 3 5 6;
#X obj 945 516 r start;
#X obj 1054 681 tgl 15 0 empty empty empty 17 7 0 10 #fcfcfc #000000
#000000 0 1;
#X floatatom 1055 634 5 0 0 0 - - - 0;
#X obj 945 540 t b b;
#X obj 1054 657 del;
#X obj 1156 633 sub_voice;
#X obj 1215 517 loadbang;
#X obj 1156 661 *~ 0.25;
#X obj 1215 659 * 0.25;
#X obj 1156 607 pack 0 0 0, f 12;
#X obj 1176 585 r rand;
#X obj 1229 585 r mintime;
#X obj 1156 688 vbap5.1;
#X obj 1156 714 dac~ 1 2 3 5 6;
#X obj 1156 517 r start;
#X obj 1265 682 tgl 15 0 empty empty empty 17 7 0 10 #fcfcfc #000000
#000000 0 1;
#X floatatom 1266 635 5 0 0 0 - - - 0;
#X obj 1156 541 t b b;
#X obj 1265 658 del;
#X msg 155 537 7;
#X msg 364 539 8;
#X msg 580 541 9;
#X msg 792 542 10;
#X msg 1004 541 11;
#X msg 1215 542 12;
#X text 1920 536 numvoices in random init has to be changed manually
;
#X obj 1700 669 openpanel;
#X obj 1700 713 soundfiler;
#X obj 1700 647 bng 15 250 50 0 empty empty empty 0 -6 0 8 #fcfcfc
#000000 #000000;
#N canvas 0 0 450 300 (subpatch) 0;
#X array source-array 1.2634e+06 float 2;
#X coords 0 1 1.2634e+06 -1 100 100 1;
#X restore 1927 640 graph;
#N canvas 0 0 450 300 (subpatch) 0;
#X array grain-env 2048 float 0;
#X coords 0 1 2047 -1 100 100 1;
#X restore 1927 755 graph;
#X msg 1700 690 read -resize \$1 source-array;
#X floatatom 1843 890 5 0 0 0 - - - 0;
#X obj 1836 872 hsl 64 12 1 2000 0 0 empty empty graindur 7 6 1 8 #fcfcfc
#000000 #000000 0 1;
#X obj 1833 932 s graindur;
#X floatatom 1714 842 5 0 0 0 - - - 0;
#X obj 1707 824 hsl 64 12 0 1 0 0 empty empty grainstart 7 6 1 8 #fcfcfc
#000000 #000000 0 1;
#X obj 1718 931 s grainstart;
#X obj 1700 735 s filesize;
#X obj 1750 866 r filesize;
#X obj 1734 888 f;
#X obj 1704 865 t f b;
#X obj 1718 909 *;
#X obj 1701 762 loadbang;
#N canvas 737 338 274 245 make-grain-env 0;
#X obj 16 42 t b b;
#X obj 16 106 f;
#X obj 44 106 + 1;
#X msg 54 63 0;
#X obj 16 85 until;
#X obj 16 127 t f f;
#X obj 16 20 inlet;
#X obj 16 188 tabwrite grain-env;
#X msg 16 63 2048;
#X obj 16 148 expr ($f1-1024)/1024;
#X obj 16 168 expr 0.5+(cos($f1 * 3.141)/2);
#X connect 0 0 8 0;
#X connect 0 1 3 0;
#X connect 1 0 2 0;
#X connect 1 0 5 0;
#X connect 2 0 1 1;
#X connect 3 0 1 1;
#X connect 4 0 1 0;
#X connect 5 0 9 0;
#X connect 5 1 7 1;
#X connect 6 0 0 0;
#X connect 8 0 4 0;
#X connect 9 0 10 0;
#X connect 10 0 7 0;
#X restore 1701 783 pd make-grain-env;
#X floatatom 1935 891 5 0 0 0 - - - 0;
#X obj 1928 873 hsl 64 12 1 2 0 0 empty empty overlap 7 6 1 8 #fcfcfc
#000000 #000000 0 1;
#X obj 1925 933 s overlap;
#X obj 97 882 sub_voice;
#X obj 157 765 loadbang;
#X obj 97 910 *~ 0.25;
#X obj 156 908 * 0.25;
#X obj 97 856 pack 0 0 0, f 12;
#X obj 117 834 r rand;
#X obj 170 834 r mintime;
#X obj 97 937 vbap5.1;
#X obj 97 963 dac~ 1 2 3 5 6;
#X obj 97 766 r start;
#X obj 206 931 tgl 15 0 empty empty empty 17 7 0 10 #fcfcfc #000000
#000000 0 1;
#X floatatom 207 884 5 0 0 0 - - - 0;
#X obj 97 790 t b b;
#X obj 206 907 del;
#X obj 306 884 sub_voice;
#X obj 365 768 loadbang;
#X obj 306 912 *~ 0.25;
#X obj 365 910 * 0.25;
#X obj 306 858 pack 0 0 0, f 12;
#X obj 326 836 r rand;
#X obj 379 836 r mintime;
#X obj 306 939 vbap5.1;
#X obj 306 965 dac~ 1 2 3 5 6;
#X obj 306 768 r start;
#X obj 415 933 tgl 15 0 empty empty empty 17 7 0 10 #fcfcfc #000000
#000000 0 1;
#X floatatom 416 886 5 0 0 0 - - - 0;
#X obj 306 792 t b b;
#X obj 415 909 del;
#X obj 522 886 sub_voice;
#X obj 581 770 loadbang;
#X obj 522 914 *~ 0.25;
#X obj 581 912 * 0.25;
#X obj 522 860 pack 0 0 0, f 12;
#X obj 542 838 r rand;
#X obj 595 838 r mintime;
#X obj 522 941 vbap5.1;
#X obj 522 967 dac~ 1 2 3 5 6;
#X obj 522 770 r start;
#X obj 631 935 tgl 15 0 empty empty empty 17 7 0 10 #fcfcfc #000000
#000000 0 1;
#X floatatom 632 888 5 0 0 0 - - - 0;
#X obj 522 794 t b b;
#X obj 631 911 del;
#X obj 734 887 sub_voice;
#X obj 793 771 loadbang;
#X obj 734 915 *~ 0.25;
#X obj 793 913 * 0.25;
#X obj 734 861 pack 0 0 0, f 12;
#X obj 754 839 r rand;
#X obj 807 839 r mintime;
#X obj 734 942 vbap5.1;
#X obj 734 968 dac~ 1 2 3 5 6;
#X obj 734 771 r start;
#X obj 843 936 tgl 15 0 empty empty empty 17 7 0 10 #fcfcfc #000000
#000000 0 1;
#X floatatom 844 889 5 0 0 0 - - - 0;
#X obj 734 795 t b b;
#X obj 843 912 del;
#X obj 946 886 sub_voice;
#X obj 1005 770 loadbang;
#X obj 946 914 *~ 0.25;
#X obj 1005 912 * 0.25;
#X obj 946 860 pack 0 0 0, f 12;
#X obj 966 838 r rand;
#X obj 1019 838 r mintime;
#X obj 946 941 vbap5.1;
#X obj 946 967 dac~ 1 2 3 5 6;
#X obj 946 770 r start;
#X obj 1055 935 tgl 15 0 empty empty empty 17 7 0 10 #fcfcfc #000000
#000000 0 1;
#X floatatom 1056 888 5 0 0 0 - - - 0;
#X obj 946 794 t b b;
#X obj 1055 911 del;
#X obj 1157 887 sub_voice;
#X obj 1216 771 loadbang;
#X obj 1157 915 *~ 0.25;
#X obj 1216 913 * 0.25;
#X obj 1157 861 pack 0 0 0, f 12;
#X obj 1177 839 r rand;
#X obj 1230 839 r mintime;
#X obj 1157 942 vbap5.1;
#X obj 1157 968 dac~ 1 2 3 5 6;
#X obj 1157 771 r start;
#X obj 1266 936 tgl 15 0 empty empty empty 17 7 0 10 #fcfcfc #000000
#000000 0 1;
#X floatatom 1267 889 5 0 0 0 - - - 0;
#X obj 1157 795 t b b;
#X obj 1266 912 del;
#X msg 395 284 -160;
#X msg 611 286 -140;
#X msg 823 287 -120;
#X msg 1035 286 -100;
#X msg 1246 287 -80;
#X msg 1462 289 -60;
#X msg 192 537 -40;
#X msg 401 539 -20;
#X msg 617 541 0;
#X msg 829 542 20;
#X msg 1041 541 40;
#X msg 1252 542 60;
#X msg 193 791 80;
#X msg 402 793 100;
#X msg 618 795 120;
#X msg 830 796 140;
#X msg 1042 795 160;
#X msg 1253 796 180;
#X msg 156 791 13;
#X msg 365 793 14;
#X msg 581 795 15;
#X msg 793 796 16;
#X msg 1005 795 17;
#X msg 1216 796 18;
#X obj 239 300 r rand;
#X obj 239 324 * 3;
#X obj 200 351 random;
#X obj 409 353 random;
#X obj 625 355 random;
#X obj 837 356 random;
#X obj 1050 355 random;
#X obj 1260 356 random;
#X obj 1476 358 random;
#X obj 1266 611 random;
#X obj 1055 610 random;
#X obj 843 611 random;
#X obj 631 610 random;
#X obj 415 608 random;
#X obj 206 606 random;
#X obj 207 860 random;
#X obj 416 862 random;
#X obj 632 864 random;
#X obj 844 865 random;
#X obj 1056 864 random;
#X obj 1267 865 random;
#X obj 447 302 r rand;
#X obj 447 326 * 3;
#X obj 663 305 r rand;
#X obj 663 329 * 3;
#X obj 877 304 r rand;
#X obj 877 328 * 3;
#X obj 1088 303 r rand;
#X obj 1088 327 * 3;
#X obj 1302 307 r rand;
#X obj 1302 331 * 3;
#X obj 1513 306 r rand;
#X obj 1513 330 * 3;
#X obj 1303 562 r rand;
#X obj 1303 586 * 3;
#X obj 1093 560 r rand;
#X obj 1093 584 * 3;
#X obj 880 561 r rand;
#X obj 880 585 * 3;
#X obj 666 561 r rand;
#X obj 666 585 * 3;
#X obj 452 558 r rand;
#X obj 452 582 * 3;
#X obj 242 556 r rand;
#X obj 242 580 * 3;
#X obj 241 810 r rand;
#X obj 241 834 * 3;
#X obj 451 813 r rand;
#X obj 451 837 * 3;
#X obj 667 814 r rand;
#X obj 667 838 * 3;
#X obj 880 815 r rand;
#X obj 880 839 * 3;
#X obj 1092 814 r rand;
#X obj 1092 838 * 3;
#X obj 1304 814 r rand;
#X obj 1304 838 * 3;
#X msg 463 132 19;
#X text 833 79 Vincenzo Madaghiele 2022 https://github.com/vincenzomadaghiele
;
#X connect 0 0 21 0;
#X connect 1 0 22 0;
#X connect 5 0 6 0;
#X connect 10 0 9 0;
#X connect 11 0 18 0;
#X connect 12 0 43 0;
#X connect 12 0 44 0;
#X connect 13 0 10 0;
#X connect 18 0 31 0;
#X connect 19 0 18 1;
#X connect 20 0 37 0;
#X connect 23 0 11 0;
#X connect 24 0 23 1;
#X connect 25 0 23 2;
#X connect 26 0 27 0;
#X connect 26 0 28 0;
#X connect 26 0 29 0;
#X connect 26 0 413 0;
#X connect 27 0 0 0;
#X connect 28 0 1 0;
#X connect 29 0 5 0;
#X connect 31 0 32 0;
#X connect 31 1 32 1;
#X connect 31 2 32 2;
#X connect 31 3 32 3;
#X connect 31 4 32 4;
#X connect 34 0 35 0;
#X connect 36 0 33 0;
#X connect 38 0 41 0;
#X connect 39 0 19 0;
#X connect 39 0 23 0;
#X connect 40 0 42 1;
#X connect 41 0 42 0;
#X connect 41 1 358 0;
#X connect 42 0 39 0;
#X connect 43 0 11 1;
#X connect 44 0 31 1;
#X connect 45 0 47 0;
#X connect 46 0 115 0;
#X connect 46 0 332 0;
#X connect 47 0 52 0;
#X connect 48 0 47 1;
#X connect 49 0 45 0;
#X connect 50 0 49 1;
#X connect 51 0 49 2;
#X connect 52 0 53 0;
#X connect 52 1 53 1;
#X connect 52 2 53 2;
#X connect 52 3 53 3;
#X connect 52 4 53 4;
#X connect 54 0 57 0;
#X connect 55 0 48 0;
#X connect 55 0 49 0;
#X connect 56 0 58 1;
#X connect 57 0 58 0;
#X connect 57 1 359 0;
#X connect 58 0 55 0;
#X connect 59 0 61 0;
#X connect 60 0 116 0;
#X connect 60 0 333 0;
#X connect 61 0 66 0;
#X connect 62 0 61 1;
#X connect 63 0 59 0;
#X connect 64 0 63 1;
#X connect 65 0 63 2;
#X connect 66 0 67 0;
#X connect 66 1 67 1;
#X connect 66 2 67 2;
#X connect 66 3 67 3;
#X connect 66 4 67 4;
#X connect 68 0 71 0;
#X connect 69 0 62 0;
#X connect 69 0 63 0;
#X connect 70 0 72 1;
#X connect 71 0 72 0;
#X connect 71 1 360 0;
#X connect 72 0 69 0;
#X connect 73 0 75 0;
#X connect 74 0 117 0;
#X connect 74 0 334 0;
#X connect 75 0 80 0;
#X connect 76 0 75 1;
#X connect 77 0 73 0;
#X connect 78 0 77 1;
#X connect 79 0 77 2;
#X connect 80 0 81 0;
#X connect 80 1 81 1;
#X connect 80 2 81 2;
#X connect 80 3 81 3;
#X connect 80 4 81 4;
#X connect 82 0 85 0;
#X connect 83 0 76 0;
#X connect 83 0 77 0;
#X connect 84 0 86 1;
#X connect 85 0 86 0;
#X connect 85 1 361 0;
#X connect 86 0 83 0;
#X connect 87 0 89 0;
#X connect 88 0 118 0;
#X connect 88 0 335 0;
#X connect 89 0 94 0;
#X connect 90 0 89 1;
#X connect 91 0 87 0;
#X connect 92 0 91 1;
#X connect 93 0 91 2;
#X connect 94 0 95 0;
#X connect 94 1 95 1;
#X connect 94 2 95 2;
#X connect 94 3 95 3;
#X connect 94 4 95 4;
#X connect 96 0 99 0;
#X connect 97 0 90 0;
#X connect 97 0 91 0;
#X connect 98 0 100 1;
#X connect 99 0 100 0;
#X connect 99 1 362 0;
#X connect 100 0 97 0;
#X connect 101 0 103 0;
#X connect 102 0 119 0;
#X connect 102 0 336 0;
#X connect 103 0 108 0;
#X connect 104 0 103 1;
#X connect 105 0 101 0;
#X connect 106 0 105 1;
#X connect 107 0 105 2;
#X connect 108 0 109 0;
#X connect 108 1 109 1;
#X connect 108 2 109 2;
#X connect 108 3 109 3;
#X connect 108 4 109 4;
#X connect 110 0 113 0;
#X connect 111 0 104 0;
#X connect 111 0 105 0;
#X connect 112 0 114 1;
#X connect 113 0 114 0;
#X connect 113 1 363 0;
#X connect 114 0 111 0;
#X connect 115 0 45 1;
#X connect 116 0 59 1;
#X connect 117 0 73 1;
#X connect 118 0 87 1;
#X connect 119 0 101 1;
#X connect 120 0 122 0;
#X connect 121 0 134 0;
#X connect 121 0 337 0;
#X connect 122 0 127 0;
#X connect 123 0 122 1;
#X connect 124 0 120 0;
#X connect 125 0 124 1;
#X connect 126 0 124 2;
#X connect 127 0 128 0;
#X connect 127 1 128 1;
#X connect 127 2 128 2;
#X connect 127 3 128 3;
#X connect 127 4 128 4;
#X connect 129 0 132 0;
#X connect 130 0 123 0;
#X connect 130 0 124 0;
#X connect 131 0 133 1;
#X connect 132 0 133 0;
#X connect 132 1 364 0;
#X connect 133 0 130 0;
#X connect 134 0 120 1;
#X connect 135 0 137 0;
#X connect 136 0 219 0;
#X connect 136 0 338 0;
#X connect 137 0 142 0;
#X connect 138 0 137 1;
#X connect 139 0 135 0;
#X connect 140 0 139 1;
#X connect 141 0 139 2;
#X connect 142 0 143 0;
#X connect 142 1 143 1;
#X connect 142 2 143 2;
#X connect 142 3 143 3;
#X connect 142 4 143 4;
#X connect 144 0 147 0;
#X connect 145 0 138 0;
#X connect 145 0 139 0;
#X connect 146 0 148 1;
#X connect 147 0 148 0;
#X connect 147 1 370 0;
#X connect 148 0 145 0;
#X connect 149 0 151 0;
#X connect 150 0 220 0;
#X connect 150 0 339 0;
#X connect 151 0 156 0;
#X connect 152 0 151 1;
#X connect 153 0 149 0;
#X connect 154 0 153 1;
#X connect 155 0 153 2;
#X connect 156 0 157 0;
#X connect 156 1 157 1;
#X connect 156 2 157 2;
#X connect 156 3 157 3;
#X connect 156 4 157 4;
#X connect 158 0 161 0;
#X connect 159 0 152 0;
#X connect 159 0 153 0;
#X connect 160 0 162 1;
#X connect 161 0 162 0;
#X connect 161 1 369 0;
#X connect 162 0 159 0;
#X connect 163 0 165 0;
#X connect 164 0 221 0;
#X connect 164 0 340 0;
#X connect 165 0 170 0;
#X connect 166 0 165 1;
#X connect 167 0 163 0;
#X connect 168 0 167 1;
#X connect 169 0 167 2;
#X connect 170 0 171 0;
#X connect 170 1 171 1;
#X connect 170 2 171 2;
#X connect 170 3 171 3;
#X connect 170 4 171 4;
#X connect 172 0 175 0;
#X connect 173 0 166 0;
#X connect 173 0 167 0;
#X connect 174 0 176 1;
#X connect 175 0 176 0;
#X connect 175 1 368 0;
#X connect 176 0 173 0;
#X connect 177 0 179 0;
#X connect 178 0 222 0;
#X connect 178 0 341 0;
#X connect 179 0 184 0;
#X connect 180 0 179 1;
#X connect 181 0 177 0;
#X connect 182 0 181 1;
#X connect 183 0 181 2;
#X connect 184 0 185 0;
#X connect 184 1 185 1;
#X connect 184 2 185 2;
#X connect 184 3 185 3;
#X connect 184 4 185 4;
#X connect 186 0 189 0;
#X connect 187 0 180 0;
#X connect 187 0 181 0;
#X connect 188 0 190 1;
#X connect 189 0 190 0;
#X connect 189 1 367 0;
#X connect 190 0 187 0;
#X connect 191 0 193 0;
#X connect 192 0 223 0;
#X connect 192 0 342 0;
#X connect 193 0 198 0;
#X connect 194 0 193 1;
#X connect 195 0 191 0;
#X connect 196 0 195 1;
#X connect 197 0 195 2;
#X connect 198 0 199 0;
#X connect 198 1 199 1;
#X connect 198 2 199 2;
#X connect 198 3 199 3;
#X connect 198 4 199 4;
#X connect 200 0 203 0;
#X connect 201 0 194 0;
#X connect 201 0 195 0;
#X connect 202 0 204 1;
#X connect 203 0 204 0;
#X connect 203 1 366 0;
#X connect 204 0 201 0;
#X connect 205 0 207 0;
#X connect 206 0 224 0;
#X connect 206 0 343 0;
#X connect 207 0 212 0;
#X connect 208 0 207 1;
#X connect 209 0 205 0;
#X connect 210 0 209 1;
#X connect 211 0 209 2;
#X connect 212 0 213 0;
#X connect 212 1 213 1;
#X connect 212 2 213 2;
#X connect 212 3 213 3;
#X connect 212 4 213 4;
#X connect 214 0 217 0;
#X connect 215 0 208 0;
#X connect 215 0 209 0;
#X connect 216 0 218 1;
#X connect 217 0 218 0;
#X connect 217 1 365 0;
#X connect 218 0 215 0;
#X connect 219 0 135 1;
#X connect 220 0 149 1;
#X connect 221 0 163 1;
#X connect 222 0 177 1;
#X connect 223 0 191 1;
#X connect 224 0 205 1;
#X connect 226 0 231 0;
#X connect 227 0 238 0;
#X connect 228 0 226 0;
#X connect 231 0 227 0;
#X connect 233 0 232 0;
#X connect 233 0 234 0;
#X connect 236 0 235 0;
#X connect 236 0 241 0;
#X connect 239 0 240 1;
#X connect 240 0 242 1;
#X connect 241 0 242 0;
#X connect 241 1 240 0;
#X connect 242 0 237 0;
#X connect 243 0 244 0;
#X connect 246 0 245 0;
#X connect 246 0 247 0;
#X connect 248 0 250 0;
#X connect 249 0 350 0;
#X connect 249 0 344 0;
#X connect 250 0 255 0;
#X connect 251 0 250 1;
#X connect 252 0 248 0;
#X connect 253 0 252 1;
#X connect 254 0 252 2;
#X connect 255 0 256 0;
#X connect 255 1 256 1;
#X connect 255 2 256 2;
#X connect 255 3 256 3;
#X connect 255 4 256 4;
#X connect 257 0 260 0;
#X connect 258 0 251 0;
#X connect 258 0 252 0;
#X connect 259 0 261 1;
#X connect 260 0 261 0;
#X connect 260 1 371 0;
#X connect 261 0 258 0;
#X connect 262 0 264 0;
#X connect 263 0 351 0;
#X connect 263 0 345 0;
#X connect 264 0 269 0;
#X connect 265 0 264 1;
#X connect 266 0 262 0;
#X connect 267 0 266 1;
#X connect 268 0 266 2;
#X connect 269 0 270 0;
#X connect 269 1 270 1;
#X connect 269 2 270 2;
#X connect 269 3 270 3;
#X connect 269 4 270 4;
#X connect 271 0 274 0;
#X connect 272 0 265 0;
#X connect 272 0 266 0;
#X connect 273 0 275 1;
#X connect 274 0 275 0;
#X connect 274 1 372 0;
#X connect 275 0 272 0;
#X connect 276 0 278 0;
#X connect 277 0 352 0;
#X connect 277 0 346 0;
#X connect 278 0 283 0;
#X connect 279 0 278 1;
#X connect 280 0 276 0;
#X connect 281 0 280 1;
#X connect 282 0 280 2;
#X connect 283 0 284 0;
#X connect 283 1 284 1;
#X connect 283 2 284 2;
#X connect 283 3 284 3;
#X connect 283 4 284 4;
#X connect 285 0 288 0;
#X connect 286 0 279 0;
#X connect 286 0 280 0;
#X connect 287 0 289 1;
#X connect 288 0 289 0;
#X connect 288 1 373 0;
#X connect 289 0 286 0;
#X connect 290 0 292 0;
#X connect 291 0 353 0;
#X connect 291 0 347 0;
#X connect 292 0 297 0;
#X connect 293 0 292 1;
#X connect 294 0 290 0;
#X connect 295 0 294 1;
#X connect 296 0 294 2;
#X connect 297 0 298 0;
#X connect 297 1 298 1;
#X connect 297 2 298 2;
#X connect 297 3 298 3;
#X connect 297 4 298 4;
#X connect 299 0 302 0;
#X connect 300 0 293 0;
#X connect 300 0 294 0;
#X connect 301 0 303 1;
#X connect 302 0 303 0;
#X connect 302 1 374 0;
#X connect 303 0 300 0;
#X connect 304 0 306 0;
#X connect 305 0 354 0;
#X connect 305 0 348 0;
#X connect 306 0 311 0;
#X connect 307 0 306 1;
#X connect 308 0 304 0;
#X connect 309 0 308 1;
#X connect 310 0 308 2;
#X connect 311 0 312 0;
#X connect 311 1 312 1;
#X connect 311 2 312 2;
#X connect 311 3 312 3;
#X connect 311 4 312 4;
#X connect 313 0 316 0;
#X connect 314 0 307 0;
#X connect 314 0 308 0;
#X connect 315 0 317 1;
#X connect 316 0 317 0;
#X connect 316 1 375 0;
#X connect 317 0 314 0;
#X connect 318 0 320 0;
#X connect 319 0 355 0;
#X connect 319 0 349 0;
#X connect 320 0 325 0;
#X connect 321 0 320 1;
#X connect 322 0 318 0;
#X connect 323 0 322 1;
#X connect 324 0 322 2;
#X connect 325 0 326 0;
#X connect 325 1 326 1;
#X connect 325 2 326 2;
#X connect 325 3 326 3;
#X connect 325 4 326 4;
#X connect 327 0 330 0;
#X connect 328 0 321 0;
#X connect 328 0 322 0;
#X connect 329 0 331 1;
#X connect 330 0 331 0;
#X connect 330 1 376 0;
#X connect 331 0 328 0;
#X connect 332 0 52 1;
#X connect 333 0 66 1;
#X connect 334 0 80 1;
#X connect 335 0 94 1;
#X connect 336 0 108 1;
#X connect 337 0 127 1;
#X connect 338 0 142 1;
#X connect 339 0 156 1;
#X connect 340 0 170 1;
#X connect 341 0 184 1;
#X connect 342 0 198 1;
#X connect 343 0 212 1;
#X connect 344 0 255 1;
#X connect 345 0 269 1;
#X connect 346 0 283 1;
#X connect 347 0 297 1;
#X connect 348 0 311 1;
#X connect 349 0 325 1;
#X connect 350 0 248 1;
#X connect 351 0 262 1;
#X connect 352 0 276 1;
#X connect 353 0 290 1;
#X connect 354 0 304 1;
#X connect 355 0 318 1;
#X connect 356 0 357 0;
#X connect 357 0 358 1;
#X connect 358 0 40 0;
#X connect 359 0 56 0;
#X connect 360 0 70 0;
#X connect 361 0 84 0;
#X connect 362 0 98 0;
#X connect 363 0 112 0;
#X connect 364 0 131 0;
#X connect 365 0 216 0;
#X connect 366 0 202 0;
#X connect 367 0 188 0;
#X connect 368 0 174 0;
#X connect 369 0 160 0;
#X connect 370 0 146 0;
#X connect 371 0 259 0;
#X connect 372 0 273 0;
#X connect 373 0 287 0;
#X connect 374 0 301 0;
#X connect 375 0 315 0;
#X connect 376 0 329 0;
#X connect 377 0 378 0;
#X connect 378 0 359 1;
#X connect 379 0 380 0;
#X connect 380 0 360 1;
#X connect 381 0 382 0;
#X connect 382 0 361 1;
#X connect 383 0 384 0;
#X connect 384 0 362 1;
#X connect 385 0 386 0;
#X connect 386 0 363 1;
#X connect 387 0 388 0;
#X connect 388 0 364 1;
#X connect 389 0 390 0;
#X connect 390 0 365 1;
#X connect 391 0 392 0;
#X connect 392 0 366 1;
#X connect 393 0 394 0;
#X connect 394 0 367 1;
#X connect 395 0 396 0;
#X connect 396 0 368 1;
#X connect 397 0 398 0;
#X connect 398 0 369 1;
#X connect 399 0 400 0;
#X connect 400 0 370 1;
#X connect 401 0 402 0;
#X connect 402 0 371 1;
#X connect 403 0 404 0;
#X connect 404 0 372 1;
#X connect 405 0 406 0;
#X connect 406 0 373 1;
#X connect 407 0 408 0;
#X connect 408 0 374 1;
#X connect 409 0 410 0;
#X connect 410 0 375 1;
#X connect 411 0 412 0;
#X connect 412 0 376 1;
#X connect 413 0 34 0;
