#N canvas 756 25 1140 1317 12;
#X obj 361 408 route 0 1 2 3;
#X obj 382 230 f;
#X obj 410 230 + 1;
#X obj 382 255 mod 4;
#X obj 382 279 t f b b;
#X obj 361 386 pack f f f;
#X obj 382 206 metro 100;
#X obj 356 206 tgl 15 0 empty empty empty 0 -6 0 8 #fcfcfc #000000
#000000 0 1;
#X obj 426 366 + 1;
#X obj 426 345 / 10000;
#X obj 426 324 random 200;
#X msg 120 480 \$1 \$2 1;
#X msg 355 479 \$1 \$2 1;
#X msg 585 469 \$1 \$2 1;
#X msg 815 465 \$1 \$2 1;
#X obj 393 304 random 10000;
#X obj 406 117 r graindur;
#X obj 439 139 r overlap;
#X obj 440 185 /;
#X obj 440 161 t b f;
#X obj 407 139 / 2;
#X obj 179 627 vline~;
#X obj 109 824 *~ 2048;
#X obj 109 845 tabread4~ grain-env;
#X obj 146 879 *~;
#X msg 179 606 0 \, 1 \$1 0;
#X obj 131 586 t f f;
#X obj 126 666 / 1000;
#X obj 163 727 *~;
#X obj 179 667 *~;
#X obj 126 688 sig~;
#X obj 156 525 r graindur;
#X obj 131 545 f;
#X obj 163 772 +~;
#X obj 179 751 r grainstart;
#X obj 120 504 t b a;
#X obj 167 505 unpack f f f;
#X obj 179 706 *~ 1;
#X obj 131 566 * 1;
#X obj 163 796 +~;
#X obj 163 821 tabread4~ source-array;
#X obj 412 623 vline~;
#X obj 337 818 *~ 2048;
#X obj 342 843 tabread4~ grain-env;
#X obj 380 875 *~;
#X msg 412 602 0 \, 1 \$1 0;
#X obj 364 582 t f f;
#X obj 359 664 / 1000;
#X obj 396 723 *~;
#X obj 412 663 *~;
#X obj 359 686 sig~;
#X obj 380 520 r graindur;
#X obj 364 541 f;
#X obj 396 768 +~;
#X obj 412 747 r grainstart;
#X obj 353 500 t b a;
#X obj 391 500 unpack f f f;
#X obj 412 702 *~ 1;
#X obj 364 562 * 1;
#X obj 396 792 +~;
#X obj 396 817 tabread4~ source-array;
#X obj 645 614 vline~;
#X obj 571 811 *~ 2048;
#X obj 578 833 tabread4~ grain-env;
#X obj 613 864 *~;
#X msg 645 593 0 \, 1 \$1 0;
#X obj 597 573 t f f;
#X obj 586 656 / 1000;
#X obj 629 714 *~;
#X obj 645 654 *~;
#X obj 586 678 sig~;
#X obj 613 511 r graindur;
#X obj 597 532 f;
#X obj 629 759 +~;
#X obj 645 738 r grainstart;
#X obj 586 491 t b a;
#X obj 624 491 unpack f f f;
#X obj 645 693 *~ 1;
#X obj 597 553 * 1;
#X obj 629 783 +~;
#X obj 629 808 tabread4~ source-array;
#X obj 874 609 vline~;
#X obj 798 805 *~ 2048;
#X obj 806 827 tabread4~ grain-env;
#X obj 841 855 *~;
#X msg 874 588 0 \, 1 \$1 0;
#X obj 826 568 t f f;
#X obj 815 651 / 1000;
#X obj 858 709 *~;
#X obj 874 649 *~;
#X obj 815 673 sig~;
#X obj 842 506 r graindur;
#X obj 826 527 f;
#X obj 858 754 +~;
#X obj 874 733 r grainstart;
#X obj 815 486 t b a;
#X obj 853 486 unpack f f f;
#X obj 874 688 *~ 1;
#X obj 826 548 * 1;
#X obj 858 778 +~;
#X obj 858 803 tabread4~ source-array;
#X obj 364 961 outlet~;
#X obj 356 183 loadbang;
#X obj 595 208 inlet;
#X obj 598 233 hsl 128 15 200 900 0 0 empty empty empty -2 -8 0 10
#fcfcfc #000000 #000000 0 1;
#X obj 595 274 / 700;
#X obj 595 253 - 200;
#X obj 595 294 * 1.78;
#X obj 595 314 + 0.22;
#X floatatom 595 334 5 0 0 0 - - - 0;
#X obj 595 357 * 44100;
#X connect 0 0 11 0;
#X connect 0 1 12 0;
#X connect 0 2 13 0;
#X connect 0 3 14 0;
#X connect 1 0 2 0;
#X connect 1 0 3 0;
#X connect 2 0 1 1;
#X connect 3 0 4 0;
#X connect 4 0 5 0;
#X connect 4 1 15 0;
#X connect 4 2 10 0;
#X connect 5 0 0 0;
#X connect 6 0 1 0;
#X connect 7 0 6 0;
#X connect 8 0 5 2;
#X connect 9 0 8 0;
#X connect 10 0 9 0;
#X connect 11 0 35 0;
#X connect 12 0 55 0;
#X connect 13 0 75 0;
#X connect 14 0 95 0;
#X connect 15 0 5 1;
#X connect 16 0 20 0;
#X connect 17 0 19 0;
#X connect 18 0 6 1;
#X connect 19 0 18 0;
#X connect 19 1 18 1;
#X connect 20 0 18 0;
#X connect 21 0 22 0;
#X connect 21 0 29 0;
#X connect 22 0 23 0;
#X connect 23 0 24 0;
#X connect 24 0 101 0;
#X connect 25 0 21 0;
#X connect 26 0 27 0;
#X connect 26 1 25 0;
#X connect 27 0 30 0;
#X connect 28 0 33 0;
#X connect 29 0 37 0;
#X connect 30 0 28 0;
#X connect 31 0 32 1;
#X connect 32 0 38 0;
#X connect 33 0 39 0;
#X connect 34 0 33 1;
#X connect 35 0 32 0;
#X connect 35 1 36 0;
#X connect 36 0 39 1;
#X connect 36 1 37 1;
#X connect 36 2 38 1;
#X connect 37 0 28 1;
#X connect 38 0 26 0;
#X connect 39 0 40 0;
#X connect 40 0 24 1;
#X connect 41 0 42 0;
#X connect 41 0 49 0;
#X connect 42 0 43 0;
#X connect 43 0 44 0;
#X connect 44 0 101 0;
#X connect 45 0 41 0;
#X connect 46 0 47 0;
#X connect 46 1 45 0;
#X connect 47 0 50 0;
#X connect 48 0 53 0;
#X connect 49 0 57 0;
#X connect 50 0 48 0;
#X connect 51 0 52 1;
#X connect 52 0 58 0;
#X connect 53 0 59 0;
#X connect 54 0 53 1;
#X connect 55 0 52 0;
#X connect 55 1 56 0;
#X connect 56 0 59 1;
#X connect 56 1 57 1;
#X connect 56 2 58 1;
#X connect 57 0 48 1;
#X connect 58 0 46 0;
#X connect 59 0 60 0;
#X connect 60 0 44 1;
#X connect 61 0 62 0;
#X connect 61 0 69 0;
#X connect 62 0 63 0;
#X connect 63 0 64 0;
#X connect 64 0 101 0;
#X connect 65 0 61 0;
#X connect 66 0 67 0;
#X connect 66 1 65 0;
#X connect 67 0 70 0;
#X connect 68 0 73 0;
#X connect 69 0 77 0;
#X connect 70 0 68 0;
#X connect 71 0 72 1;
#X connect 72 0 78 0;
#X connect 73 0 79 0;
#X connect 74 0 73 1;
#X connect 75 0 72 0;
#X connect 75 1 76 0;
#X connect 76 0 79 1;
#X connect 76 1 77 1;
#X connect 76 2 78 1;
#X connect 77 0 68 1;
#X connect 78 0 66 0;
#X connect 79 0 80 0;
#X connect 80 0 64 1;
#X connect 81 0 82 0;
#X connect 81 0 89 0;
#X connect 82 0 83 0;
#X connect 83 0 84 0;
#X connect 84 0 101 0;
#X connect 85 0 81 0;
#X connect 86 0 87 0;
#X connect 86 1 85 0;
#X connect 87 0 90 0;
#X connect 88 0 93 0;
#X connect 89 0 97 0;
#X connect 90 0 88 0;
#X connect 91 0 92 1;
#X connect 92 0 98 0;
#X connect 93 0 99 0;
#X connect 94 0 93 1;
#X connect 95 0 92 0;
#X connect 95 1 96 0;
#X connect 96 0 99 1;
#X connect 96 1 97 1;
#X connect 96 2 98 1;
#X connect 97 0 88 1;
#X connect 98 0 86 0;
#X connect 99 0 100 0;
#X connect 100 0 84 1;
#X connect 102 0 7 0;
#X connect 103 0 104 0;
#X connect 104 0 106 0;
#X connect 105 0 107 0;
#X connect 106 0 105 0;
#X connect 107 0 108 0;
#X connect 108 0 109 0;
#X connect 109 0 110 0;
#X connect 110 0 89 1;
#X connect 110 0 69 1;
#X connect 110 0 49 1;
#X connect 110 0 29 1;
