#N canvas 0 0 696 511 12;
#X obj 269 357 outlet~;
#X obj 372 77 inlet;
#X obj 375 102 hsl 128 15 200 900 0 0 empty empty empty -2 -8 0 10
#fcfcfc #000000 #000000 0 1;
#X obj 372 143 / 700;
#X obj 372 122 - 200;
#X obj 372 163 * 1.78;
#X obj 372 183 + 0.22;
#X floatatom 372 203 5 0 0 0 - - - 0;
#X obj 195 101 tgl 15 0 empty empty empty 17 7 0 10 #fcfcfc #000000
#000000 0 1;
#X obj 195 121 metro 100;
#X obj 195 145 f;
#X obj 225 145 + 1;
#X obj 225 168 mod 4;
#X obj 255 73 r grain_dur;
#X obj 255 97 / 4;
#X obj 195 191 route 0 1 2 3;
#X obj 195 219 bng 15 250 50 0 empty empty empty 17 7 0 10 #fcfcfc
#000000 #000000;
#X obj 239 219 bng 15 250 50 0 empty empty empty 17 7 0 10 #fcfcfc
#000000 #000000;
#X obj 217 219 bng 15 250 50 0 empty empty empty 17 7 0 10 #fcfcfc
#000000 #000000;
#X obj 261 219 bng 15 250 50 0 empty empty empty 17 7 0 10 #fcfcfc
#000000 #000000;
#N canvas 165 74 563 560 grain 0;
#X obj 119 335 pack 0 0;
#X obj 199 388 line~;
#X obj 199 412 delread4~ voice;
#X obj 270 453 *~;
#X obj 190 286 r grain_dur;
#X obj 172 312 f;
#X obj 321 220 r grain_start;
#X obj 303 246 f;
#X obj 48 229 r grain_start;
#X obj 119 260 f;
#X obj 119 285 *;
#X obj 168 135 r random_pitch;
#X obj 388 255 r random_start;
#X obj 321 280 random 200;
#X obj 102 163 random 50;
#X obj 102 187 / 100;
#X obj 174 186 / 2;
#X obj 149 210 -;
#X obj 174 163 / 100;
#X obj 402 281 / 2;
#X obj 321 305 -;
#X obj 149 259 +;
#X obj 303 330 +;
#X obj 223 94 t b b b b b;
#X obj 149 234 t b f;
#N canvas 875 188 270 391 hanning 0;
#X obj 68 90 t b b b;
#X msg 57 117 1;
#X msg 131 141 0;
#X obj 57 141 pack 0 0;
#X obj 57 219 *~ -1;
#X obj 57 243 +~ 1;
#X obj 57 267 /~ 2;
#X obj 57 171 line~;
#X obj 57 195 cos~;
#X obj 128 90 r grain_dur;
#X obj 110 117 f;
#X obj 68 65 inlet;
#X obj 57 294 outlet~;
#X text 60 35 Hanning window;
#X connect 0 0 1 0;
#X connect 0 1 10 0;
#X connect 0 2 2 0;
#X connect 1 0 3 0;
#X connect 2 0 7 0;
#X connect 3 0 7 0;
#X connect 4 0 5 0;
#X connect 5 0 6 0;
#X connect 6 0 12 0;
#X connect 7 0 8 0;
#X connect 8 0 4 0;
#X connect 9 0 10 1;
#X connect 10 0 3 1;
#X connect 11 0 0 0;
#X restore 323 413 pd hanning;
#X obj 223 61 inlet;
#X obj 369 62 inlet;
#X obj 270 477 outlet~;
#X connect 0 0 1 0;
#X connect 1 0 2 0;
#X connect 2 0 3 0;
#X connect 3 0 28 0;
#X connect 4 0 5 1;
#X connect 5 0 0 1;
#X connect 6 0 7 1;
#X connect 7 0 22 0;
#X connect 8 0 9 1;
#X connect 9 0 10 0;
#X connect 10 0 0 0;
#X connect 11 0 14 1;
#X connect 11 0 18 0;
#X connect 12 0 13 1;
#X connect 12 0 19 0;
#X connect 13 0 20 0;
#X connect 14 0 15 0;
#X connect 15 0 17 0;
#X connect 16 0 17 1;
#X connect 17 0 24 0;
#X connect 18 0 16 0;
#X connect 19 0 20 1;
#X connect 20 0 22 1;
#X connect 21 0 10 1;
#X connect 22 0 1 0;
#X connect 23 0 9 0;
#X connect 23 1 5 0;
#X connect 23 2 7 0;
#X connect 23 3 14 0;
#X connect 23 4 13 0;
#X connect 24 0 21 0;
#X connect 24 1 21 1;
#X connect 25 0 3 1;
#X connect 26 0 23 0;
#X connect 26 0 25 0;
#X connect 27 0 21 0;
#X restore 142 285 pd grain;
#N canvas 165 74 563 560 grain 0;
#X obj 119 335 pack 0 0;
#X obj 199 388 line~;
#X obj 199 412 delread4~ voice;
#X obj 270 453 *~;
#X obj 190 286 r grain_dur;
#X obj 172 312 f;
#X obj 321 220 r grain_start;
#X obj 303 246 f;
#X obj 48 229 r grain_start;
#X obj 119 260 f;
#X obj 119 285 *;
#X obj 168 135 r random_pitch;
#X obj 388 255 r random_start;
#X obj 321 280 random 200;
#X obj 102 163 random 50;
#X obj 102 187 / 100;
#X obj 174 186 / 2;
#X obj 149 210 -;
#X obj 174 163 / 100;
#X obj 402 281 / 2;
#X obj 321 305 -;
#X obj 149 259 +;
#X obj 303 330 +;
#X obj 223 94 t b b b b b;
#X obj 149 234 t b f;
#N canvas 875 188 270 391 hanning 0;
#X obj 68 90 t b b b;
#X msg 57 117 1;
#X msg 131 141 0;
#X obj 57 141 pack 0 0;
#X obj 57 219 *~ -1;
#X obj 57 243 +~ 1;
#X obj 57 267 /~ 2;
#X obj 57 171 line~;
#X obj 57 195 cos~;
#X obj 128 90 r grain_dur;
#X obj 110 117 f;
#X obj 68 65 inlet;
#X obj 57 294 outlet~;
#X text 60 35 Hanning window;
#X connect 0 0 1 0;
#X connect 0 1 10 0;
#X connect 0 2 2 0;
#X connect 1 0 3 0;
#X connect 2 0 7 0;
#X connect 3 0 7 0;
#X connect 4 0 5 0;
#X connect 5 0 6 0;
#X connect 6 0 12 0;
#X connect 7 0 8 0;
#X connect 8 0 4 0;
#X connect 9 0 10 1;
#X connect 10 0 3 1;
#X connect 11 0 0 0;
#X restore 323 413 pd hanning;
#X obj 223 61 inlet;
#X obj 369 62 inlet;
#X obj 270 477 outlet~;
#X connect 0 0 1 0;
#X connect 1 0 2 0;
#X connect 2 0 3 0;
#X connect 3 0 28 0;
#X connect 4 0 5 1;
#X connect 5 0 0 1;
#X connect 6 0 7 1;
#X connect 7 0 22 0;
#X connect 8 0 9 1;
#X connect 9 0 10 0;
#X connect 10 0 0 0;
#X connect 11 0 14 1;
#X connect 11 0 18 0;
#X connect 12 0 13 1;
#X connect 12 0 19 0;
#X connect 13 0 20 0;
#X connect 14 0 15 0;
#X connect 15 0 17 0;
#X connect 16 0 17 1;
#X connect 17 0 24 0;
#X connect 18 0 16 0;
#X connect 19 0 20 1;
#X connect 20 0 22 1;
#X connect 21 0 10 1;
#X connect 22 0 1 0;
#X connect 23 0 9 0;
#X connect 23 1 5 0;
#X connect 23 2 7 0;
#X connect 23 3 14 0;
#X connect 23 4 13 0;
#X connect 24 0 21 0;
#X connect 24 1 21 1;
#X connect 25 0 3 1;
#X connect 26 0 23 0;
#X connect 26 0 25 0;
#X connect 27 0 21 0;
#X restore 221 286 pd grain;
#N canvas 165 74 563 560 grain 0;
#X obj 119 335 pack 0 0;
#X obj 199 388 line~;
#X obj 199 412 delread4~ voice;
#X obj 270 453 *~;
#X obj 190 286 r grain_dur;
#X obj 172 312 f;
#X obj 321 220 r grain_start;
#X obj 303 246 f;
#X obj 48 229 r grain_start;
#X obj 119 260 f;
#X obj 119 285 *;
#X obj 168 135 r random_pitch;
#X obj 388 255 r random_start;
#X obj 321 280 random 200;
#X obj 102 163 random 50;
#X obj 102 187 / 100;
#X obj 174 186 / 2;
#X obj 149 210 -;
#X obj 174 163 / 100;
#X obj 402 281 / 2;
#X obj 321 305 -;
#X obj 149 259 +;
#X obj 303 330 +;
#X obj 223 94 t b b b b b;
#X obj 149 234 t b f;
#N canvas 875 188 270 391 hanning 0;
#X obj 68 90 t b b b;
#X msg 57 117 1;
#X msg 131 141 0;
#X obj 57 141 pack 0 0;
#X obj 57 219 *~ -1;
#X obj 57 243 +~ 1;
#X obj 57 267 /~ 2;
#X obj 57 171 line~;
#X obj 57 195 cos~;
#X obj 128 90 r grain_dur;
#X obj 110 117 f;
#X obj 68 65 inlet;
#X obj 57 294 outlet~;
#X text 60 35 Hanning window;
#X connect 0 0 1 0;
#X connect 0 1 10 0;
#X connect 0 2 2 0;
#X connect 1 0 3 0;
#X connect 2 0 7 0;
#X connect 3 0 7 0;
#X connect 4 0 5 0;
#X connect 5 0 6 0;
#X connect 6 0 12 0;
#X connect 7 0 8 0;
#X connect 8 0 4 0;
#X connect 9 0 10 1;
#X connect 10 0 3 1;
#X connect 11 0 0 0;
#X restore 323 413 pd hanning;
#X obj 223 61 inlet;
#X obj 369 62 inlet;
#X obj 270 477 outlet~;
#X connect 0 0 1 0;
#X connect 1 0 2 0;
#X connect 2 0 3 0;
#X connect 3 0 28 0;
#X connect 4 0 5 1;
#X connect 5 0 0 1;
#X connect 6 0 7 1;
#X connect 7 0 22 0;
#X connect 8 0 9 1;
#X connect 9 0 10 0;
#X connect 10 0 0 0;
#X connect 11 0 14 1;
#X connect 11 0 18 0;
#X connect 12 0 13 1;
#X connect 12 0 19 0;
#X connect 13 0 20 0;
#X connect 14 0 15 0;
#X connect 15 0 17 0;
#X connect 16 0 17 1;
#X connect 17 0 24 0;
#X connect 18 0 16 0;
#X connect 19 0 20 1;
#X connect 20 0 22 1;
#X connect 21 0 10 1;
#X connect 22 0 1 0;
#X connect 23 0 9 0;
#X connect 23 1 5 0;
#X connect 23 2 7 0;
#X connect 23 3 14 0;
#X connect 23 4 13 0;
#X connect 24 0 21 0;
#X connect 24 1 21 1;
#X connect 25 0 3 1;
#X connect 26 0 23 0;
#X connect 26 0 25 0;
#X connect 27 0 21 0;
#X restore 294 286 pd grain;
#N canvas 165 74 563 560 grain 0;
#X obj 119 335 pack 0 0;
#X obj 199 388 line~;
#X obj 199 412 delread4~ voice;
#X obj 270 453 *~;
#X obj 190 286 r grain_dur;
#X obj 172 312 f;
#X obj 321 220 r grain_start;
#X obj 303 246 f;
#X obj 48 229 r grain_start;
#X obj 119 260 f;
#X obj 119 285 *;
#X obj 168 135 r random_pitch;
#X obj 388 255 r random_start;
#X obj 321 280 random 200;
#X obj 102 163 random 50;
#X obj 102 187 / 100;
#X obj 174 186 / 2;
#X obj 149 210 -;
#X obj 174 163 / 100;
#X obj 402 281 / 2;
#X obj 321 305 -;
#X obj 149 259 +;
#X obj 303 330 +;
#X obj 223 94 t b b b b b;
#X obj 149 234 t b f;
#N canvas 875 188 270 391 hanning 0;
#X obj 68 90 t b b b;
#X msg 57 117 1;
#X msg 131 141 0;
#X obj 57 141 pack 0 0;
#X obj 57 219 *~ -1;
#X obj 57 243 +~ 1;
#X obj 57 267 /~ 2;
#X obj 57 171 line~;
#X obj 57 195 cos~;
#X obj 128 90 r grain_dur;
#X obj 110 117 f;
#X obj 68 65 inlet;
#X obj 57 294 outlet~;
#X text 60 35 Hanning window;
#X connect 0 0 1 0;
#X connect 0 1 10 0;
#X connect 0 2 2 0;
#X connect 1 0 3 0;
#X connect 2 0 7 0;
#X connect 3 0 7 0;
#X connect 4 0 5 0;
#X connect 5 0 6 0;
#X connect 6 0 12 0;
#X connect 7 0 8 0;
#X connect 8 0 4 0;
#X connect 9 0 10 1;
#X connect 10 0 3 1;
#X connect 11 0 0 0;
#X restore 323 413 pd hanning;
#X obj 223 61 inlet;
#X obj 369 62 inlet;
#X obj 270 477 outlet~;
#X connect 0 0 1 0;
#X connect 1 0 2 0;
#X connect 2 0 3 0;
#X connect 3 0 28 0;
#X connect 4 0 5 1;
#X connect 5 0 0 1;
#X connect 6 0 7 1;
#X connect 7 0 22 0;
#X connect 8 0 9 1;
#X connect 9 0 10 0;
#X connect 10 0 0 0;
#X connect 11 0 14 1;
#X connect 11 0 18 0;
#X connect 12 0 13 1;
#X connect 12 0 19 0;
#X connect 13 0 20 0;
#X connect 14 0 15 0;
#X connect 15 0 17 0;
#X connect 16 0 17 1;
#X connect 17 0 24 0;
#X connect 18 0 16 0;
#X connect 19 0 20 1;
#X connect 20 0 22 1;
#X connect 21 0 10 1;
#X connect 22 0 1 0;
#X connect 23 0 9 0;
#X connect 23 1 5 0;
#X connect 23 2 7 0;
#X connect 23 3 14 0;
#X connect 23 4 13 0;
#X connect 24 0 21 0;
#X connect 24 1 21 1;
#X connect 25 0 3 1;
#X connect 26 0 23 0;
#X connect 26 0 25 0;
#X connect 27 0 21 0;
#X restore 373 287 pd grain;
#X obj 186 74 loadbang;
#X connect 1 0 2 0;
#X connect 2 0 4 0;
#X connect 3 0 5 0;
#X connect 4 0 3 0;
#X connect 5 0 6 0;
#X connect 6 0 7 0;
#X connect 7 0 20 1;
#X connect 7 0 21 1;
#X connect 7 0 23 1;
#X connect 7 0 22 1;
#X connect 8 0 9 0;
#X connect 9 0 10 0;
#X connect 10 0 11 0;
#X connect 10 0 15 0;
#X connect 11 0 12 0;
#X connect 12 0 10 1;
#X connect 13 0 14 0;
#X connect 14 0 9 1;
#X connect 15 0 16 0;
#X connect 15 1 18 0;
#X connect 15 2 17 0;
#X connect 15 3 19 0;
#X connect 16 0 20 0;
#X connect 17 0 22 0;
#X connect 18 0 21 0;
#X connect 19 0 23 0;
#X connect 20 0 0 0;
#X connect 21 0 0 0;
#X connect 22 0 0 0;
#X connect 23 0 0 0;
#X connect 24 0 8 0;
