#N canvas 76 59 528 595 12;
#X obj 57 183 bng 15 250 50 0 empty empty empty 17 7 0 10 -262144 -1
-1;
#X obj 57 216 t b b, f 7;
#X obj 57 358 del 500;
#X obj 103 313 + 500;
#X floatatom 103 336 5 0 0 0 - - -;
#X obj 57 381 bng 15 250 50 0 empty empty empty 17 7 0 10 -262144 -1
-1;
#X obj 110 425 s bang;
#X obj 57 107 r bang;
#X obj 103 239 random 500;
#X obj 57 402 t b b, f 8;
#X obj 57 131 expr if($f2 == 1 \, 1 \, 0);
#X obj 215 88 tgl 15 0 empty empty empty 17 7 0 10 -262144 -1 -1 0
1;
#X obj 57 154 sel 1;
#X obj 247 131 sel 1;
#X obj 215 108 t f f;
#X text 60 53 RANDOM METRO;
#X floatatom 170 217 5 0 0 0 - - -;
#X text 239 86 START;
#X text 213 216 RANDOMNESS;
#X floatatom 135 291 5 0 0 0 - - -;
#X text 176 293 MIN TIME;
#X obj 170 193 r randomness;
#X obj 135 267 r mintime;
#X obj 215 37 inlet;
#X obj 215 62 unpack 0 0 0, f 15;
#X obj 317 109 s randomness;
#X obj 317 86 s mintime;
#X obj 57 426 outlet;
#X connect 0 0 1 0;
#X connect 1 0 2 0;
#X connect 1 1 8 0;
#X connect 2 0 5 0;
#X connect 3 0 4 0;
#X connect 4 0 2 1;
#X connect 5 0 9 0;
#X connect 7 0 10 0;
#X connect 8 0 3 0;
#X connect 9 0 27 0;
#X connect 9 1 6 0;
#X connect 10 0 12 0;
#X connect 11 0 14 0;
#X connect 12 0 0 0;
#X connect 13 0 0 0;
#X connect 14 0 10 1;
#X connect 14 1 13 0;
#X connect 16 0 8 1;
#X connect 19 0 3 1;
#X connect 21 0 16 0;
#X connect 22 0 19 0;
#X connect 23 0 24 0;
#X connect 24 0 11 0;
#X connect 24 1 25 0;
#X connect 24 2 26 0;
