#N canvas 92 117 1060 1011 12;
#X floatatom 263 372 5 0 0 2 - - - 0;
#X floatatom 239 463 10 0 0 0 - - - 0;
#X floatatom 333 464 10 0 0 0 - - - 0;
#X obj 266 356 hsl 100 13 -180 180 0 1 empty empty azimuth 10 7 0 10
#fcfcfc #000000 #000000 0 1;
#X floatatom 313 389 5 0 0 2 - - - 0;
#X obj 316 372 hsl 100 13 0 100 0 1 empty empty spread 10 7 0 10 #fcfcfc
#000000 #000000 0 1;
#X obj 239 333 metro 100;
#X obj 239 311 tgl 15 0 empty empty empty 17 7 0 10 #fcfcfc #000000
#000000 0 1;
#X obj 267 512 *~;
#X obj 327 514 *~;
#X floatatom 433 465 10 0 0 0 - - - 0;
#X floatatom 521 466 10 0 0 0 - - - 0;
#X obj 388 514 *~;
#X obj 451 514 *~;
#X msg 220 283 define_loudspeakers 2 -135 -45 0 45 135;
#X floatatom 612 467 10 0 0 0 - - - 0;
#X obj 514 514 *~;
#X obj 239 412 vbap 0 0 30;
#X obj 239 438 route 0 1 2 3 4;
#X obj 220 257 loadbang;
#X obj 178 462 inlet~;
#X obj 267 538 outlet~;
#X obj 327 538 outlet~;
#X obj 388 538 outlet~;
#X obj 451 538 outlet~;
#X obj 514 538 outlet~;
#X obj 313 332 inlet;
#X text 178 436 SOUND;
#X text 363 331 AZIMUTH;
#X connect 0 0 17 1;
#X connect 1 0 8 1;
#X connect 2 0 12 1;
#X connect 3 0 0 0;
#X connect 4 0 17 3;
#X connect 5 0 4 0;
#X connect 6 0 17 0;
#X connect 7 0 6 0;
#X connect 8 0 21 0;
#X connect 9 0 22 0;
#X connect 10 0 9 1;
#X connect 11 0 16 1;
#X connect 12 0 23 0;
#X connect 13 0 24 0;
#X connect 14 0 17 0;
#X connect 15 0 13 1;
#X connect 16 0 25 0;
#X connect 17 0 18 0;
#X connect 18 0 1 0;
#X connect 18 1 2 0;
#X connect 18 2 10 0;
#X connect 18 3 11 0;
#X connect 18 4 15 0;
#X connect 19 0 14 0;
#X connect 19 0 7 0;
#X connect 20 0 8 0;
#X connect 20 0 9 0;
#X connect 20 0 12 0;
#X connect 20 0 13 0;
#X connect 20 0 16 0;
#X connect 26 0 3 0;
