#N canvas 179 204 1084 684 12;
#X obj 76 104 phasor~;
#X floatatom 76 56 5 0 0 0 - - - 0;
#X obj 76 128 *~ 2;
#X obj 76 152 -~ 1;
#X obj 85 379 bp~ 1 34;
#X obj 150 379 bp~ 1 34;
#X obj 217 378 bp~ 1 34;
#X obj 157 319 unpack f f f;
#X msg 263 294 280 2250 2900;
#X msg 157 294 400 1900 2550;
#X msg 373 294 550 1770 2490;
#X obj 150 410 *~ 1;
#X obj 144 102 phasor~;
#X obj 144 126 *~ 2;
#X obj 144 150 -~ 1;
#X obj 144 174 *~ 0.5;
#X obj 89 212 *~ 0.2;
#X obj 220 101 phasor~;
#X obj 220 125 *~ 2;
#X obj 220 149 -~ 1;
#X obj 220 173 *~ 0.25;
#X obj 76 32 inlet;
#X obj 150 434 outlet~;
#X obj 157 221 loadbang;
#X obj 157 245 random 3;
#X obj 157 269 sel 0 1 2;
#X obj 144 78 *~ 0.99;
#X obj 220 77 *~ 0.9;
#X connect 0 0 2 0;
#X connect 1 0 0 0;
#X connect 1 0 26 0;
#X connect 1 0 27 0;
#X connect 2 0 3 0;
#X connect 3 0 16 0;
#X connect 4 0 11 0;
#X connect 5 0 11 0;
#X connect 6 0 11 0;
#X connect 7 0 4 1;
#X connect 7 1 5 1;
#X connect 7 2 6 1;
#X connect 8 0 7 0;
#X connect 9 0 7 0;
#X connect 10 0 7 0;
#X connect 11 0 22 0;
#X connect 12 0 13 0;
#X connect 13 0 14 0;
#X connect 14 0 15 0;
#X connect 15 0 16 0;
#X connect 16 0 4 0;
#X connect 16 0 5 0;
#X connect 16 0 6 0;
#X connect 17 0 18 0;
#X connect 18 0 19 0;
#X connect 19 0 20 0;
#X connect 20 0 16 0;
#X connect 21 0 1 0;
#X connect 23 0 24 0;
#X connect 24 0 25 0;
#X connect 25 0 9 0;
#X connect 25 1 8 0;
#X connect 25 2 10 0;
#X connect 26 0 12 0;
#X connect 27 0 17 0;
