#N canvas 74 27 521 426 12;
#X obj 287 191 f;
#X obj 321 191 + 1;
#X floatatom 287 214 5 0 0 0 - - -;
#X floatatom 209 118 5 0 0 0 - - -;
#X msg 150 158 0;
#X obj 209 74 bng 15 250 50 0 empty empty empty 17 7 0 10 -262144 -1
-1;
#X text 244 94 NUM VOICES;
#X obj 209 141 vuzi;
#X obj 209 164 t b b, f 11;
#X obj 150 182 bng 15 250 50 0 empty empty empty 17 7 0 10 -262144
-1 -1;
#X obj 150 252 tabwrite frequencies;
#X obj 209 52 inlet;
#X obj 150 228 + 100;
#X obj 149 205 random 750;
#X msg 209 94 8;
#X connect 0 0 1 0;
#X connect 0 0 2 0;
#X connect 1 0 0 1;
#X connect 2 0 10 1;
#X connect 3 0 7 0;
#X connect 4 0 0 0;
#X connect 4 0 9 0;
#X connect 5 0 4 0;
#X connect 5 0 14 0;
#X connect 7 0 8 0;
#X connect 8 0 13 0;
#X connect 8 1 0 0;
#X connect 9 0 13 0;
#X connect 11 0 5 0;
#X connect 12 0 10 0;
#X connect 13 0 12 0;
#X connect 14 0 3 0;
